# xmcd
#
# Track frame offsets:
#	150
#	13810
#	28737
#	48112
#	60335
#	75057
#	87432
#	100770
#	116590
#	139100
#
# Disc length: 2104 seconds
#
# Revision: 6
# Processed by: cddbd v1.5.1PL2 Copyright (c) Steve Scherf et al.
# Submitted via: audiograbber 1.82.02
#
DISCID=6e08360a
DTITLE=Holly Dunn - Across The Rio Grande
DYEAR=1988
DGENRE=Country
TTITLE0=City Limit
TTITLE1=The Stronger The Tie,
TTITLE2=Just Across The Rio Grande
TTITLE3=Have  A Heart 
TTITLE4=If Nobody Knew My Name
TTITLE5=That's What Your Love Does To Me
TTITLE6=It's Always Gonna Be
TTITLE7=Lonesome Highway 
TTITLE8=Travelin' Prayer
TTITLE9=On The Wings Of An Angel
EXTD=
EXTT0=
EXTT1=
EXTT2=
EXTT3=
EXTT4=
EXTT5=
EXTT6=
EXTT7=
EXTT8=
EXTT9=
PLAYORDER=
